name Walk4.mot
datacolumns 19
datarows 12
range 3.81600000 3.82700000
endheader

                time	   L_ground_force_vx	   L_ground_force_vy	   L_ground_force_vz	   L_ground_force_px	   L_ground_force_py	   L_ground_force_pz	   R_ground_force_vx	   R_ground_force_vy	   R_ground_force_vz	   R_ground_force_px	   R_ground_force_py	   R_ground_force_pz	   L_ground_torque_x	   L_ground_torque_y	   L_ground_torque_z	   R_ground_torque_x	   R_ground_torque_y	   R_ground_torque_z	
          3.81600000	         28.57428435	       1002.63078459	         69.71115579	         -0.21528455	          0.00000000	         -0.04106588	         -0.04396190	          0.56686185	          0.02735932	          0.00026914	          0.00000000	          0.00022365	          0.00000000	          0.63226653	          0.00000000	          0.00000000	          0.01103816	          0.00000000	
          3.81700000	         29.00141627	       1002.77199825	         69.98904204	         -0.21490872	          0.00000000	         -0.04113579	         -0.04704677	          0.58004489	          0.02684840	          0.00026896	          0.00000000	          0.00022251	          0.00000000	          0.65650867	          0.00000000	          0.00000000	          0.01173015	          0.00000000	
          3.81800000	         29.43232324	       1002.89558201	         70.26267350	         -0.21453361	          0.00000000	         -0.04120343	         -0.05022401	          0.59205744	          0.02617912	          0.00026765	          0.00000000	          0.00022034	          0.00000000	          0.68059468	          0.00000000	          0.00000000	          0.01243801	          0.00000000	
          3.81900000	         29.86713489	       1003.00297868	         70.53165759	         -0.21415937	          0.00000000	         -0.04126870	         -0.05348907	          0.60274111	          0.02533953	          0.00026511	          0.00000000	          0.00021707	          0.00000000	          0.70448185	          0.00000000	          0.00000000	          0.01316027	          0.00000000	
          3.82000000	         30.30598956	       1003.09563940	         70.79560572	         -0.21378614	          0.00000000	         -0.04133154	         -0.05683663	          0.61192830	          0.02431728	          0.00026125	          0.00000000	          0.00021259	          0.00000000	          0.72812711	          0.00000000	          0.00000000	          0.01389530	          0.00000000	
          3.82100000	         30.74903221	       1003.17501896	         71.05413613	         -0.21341409	          0.00000000	         -0.04139188	         -0.06026053	          0.61944199	          0.02309960	          0.00025594	          0.00000000	          0.00020682	          0.00000000	          0.75148774	          0.00000000	          0.00000000	          0.01464124	          0.00000000	
          3.82200000	         31.19641205	       1003.24257158	         71.30687753	         -0.21304336	          0.00000000	         -0.04144967	         -0.06375373	          0.62509566	          0.02167337	          0.00024909	          0.00000000	          0.00019966	          0.00000000	          0.77452185	          0.00000000	          0.00000000	          0.01539603	          0.00000000	
          3.82300000	         31.64828085	       1003.29974708	         71.55347310	         -0.21267412	          0.00000000	         -0.04150487	         -0.06730824	          0.62869311	          0.02002510	          0.00024057	          0.00000000	          0.00019100	          0.00000000	          0.79718861	          0.00000000	          0.00000000	          0.01615738	          0.00000000	
          3.82400000	         32.10479242	       1003.34798760	         71.79358380	         -0.21230654	          0.00000000	         -0.04155742	         -0.07091507	          0.63002840	          0.01814096	          0.00023027	          0.00000000	          0.00018076	          0.00000000	          0.81944819	          0.00000000	          0.00000000	          0.01692275	          0.00000000	
          3.82500000	         32.56610314	       1003.38872454	         72.02689084	         -0.21194079	          0.00000000	         -0.04160729	         -0.07456419	          0.62888582	          0.01600682	          0.00021805	          0.00000000	          0.00016882	          0.00000000	          0.84126163	          0.00000000	          0.00000000	          0.01768935	          0.00000000	
          3.82600000	         33.03237269	       1003.42337525	         72.25309703	         -0.21157705	          0.00000000	         -0.04165446	         -0.07824447	          0.62503982	          0.01360825	          0.00020380	          0.00000000	          0.00015507	          0.00000000	          0.86259085	          0.00000000	          0.00000000	          0.01845414	          0.00000000	
          3.82700000	         33.50376428	       1003.45333862	         72.47192727	         -0.21121547	          0.00000000	         -0.04169890	         -0.08194359	          0.61825507	          0.01093060	          0.00018739	          0.00000000	          0.00013940	          0.00000000	          0.88339889	          0.00000000	          0.00000000	          0.01921377	          0.00000000	
